<svg width="3080" height="215" viewBox="0 0 3080 215" fill="none" xmlns="http://www.w3.org/2000/svg">
<path d="M1540 215V179C1540 118.249 1589.25 69 1650 69H3080" stroke="#CEAF72" stroke-width="3"/>
<path d="M1540 199V163C1540 102.249 1589.25 53 1650 53H3080" stroke="#CEAF72" stroke-width="3"/>
<path d="M1540 183V147C1540 86.2487 1589.25 37 1650 37H3080" stroke="#CEAF72" stroke-width="3"/>
<path d="M1540 167V131C1540 70.2487 1589.25 21 1650 21H3080" stroke="#CEAF72" stroke-width="3"/>
<path d="M1540 151V115C1540 54.2487 1589.25 5 1650 5H3080" stroke="#CEAF72" stroke-width="3"/>
<path d="M1540 212V176C1540 115.249 1490.75 66 1430 66H0" stroke="#CEAF72" stroke-width="3"/>
<path d="M1540 196V160C1540 99.2487 1490.75 50 1430 50H0" stroke="#CEAF72" stroke-width="3"/>
<path d="M1540 180V144C1540 83.2487 1490.75 34 1430 34H0" stroke="#CEAF72" stroke-width="3"/>
<path d="M1540 164V128C1540 67.2487 1490.75 18 1430 18H0" stroke="#CEAF72" stroke-width="3"/>
<path d="M1540 148V112C1540 51.2487 1490.75 2 1430 2H0" stroke="#CEAF72" stroke-width="3"/>
</svg>
