<svg width="265" height="156" viewBox="0 0 265 156" fill="none" xmlns="http://www.w3.org/2000/svg">
<path d="M78.177 26.2973V27H67.7505V26.2973L70.7892 25.3477V2.55772L67.7505 1.62712V0.924432H78.177V1.62712L75.1383 2.55772V25.3477L78.177 26.2973Z" fill="#CEAF72"/>
<path d="M87.0321 12.7942V25.5756L89.4631 26.3543V27H80.518V26.3543L83.1388 25.5376V13.1931C82.9236 12.9525 82.6197 12.7119 82.2272 12.4714C81.8347 12.2181 81.2523 11.9143 80.48 11.5598V11.066L86.2345 9.09085H86.5763L87.0321 12.7942ZM97.8004 14.3136V25.5756L100.25 26.3543V27H91.4762V26.3543L93.9261 25.5756V15.1682C93.9261 14.4971 93.7932 13.9464 93.5273 13.5159C93.2741 13.0728 92.9006 12.7436 92.4068 12.5283C91.9257 12.3004 91.3369 12.1865 90.6406 12.1865C89.8302 12.1865 89.0516 12.3194 88.3046 12.5853C87.5702 12.8385 87.0005 13.1614 86.5953 13.5539L86.0826 12.9272C86.8549 12.1675 87.5449 11.5471 88.1526 11.066C88.773 10.5722 89.3555 10.186 89.8999 9.90749C90.4443 9.62895 90.9824 9.43903 91.5142 9.33774C92.0459 9.22379 92.6094 9.16682 93.2044 9.16682C94.2806 9.16682 95.1542 9.38206 95.8253 9.81253C96.509 10.243 97.0091 10.8444 97.3256 11.6167C97.6422 12.3891 97.8004 13.288 97.8004 14.3136ZM108.588 14.8833V25.5376L111.247 26.3543V27H102.263V26.3543L104.713 25.5756V15.1682C104.713 14.4845 104.58 13.9274 104.315 13.4969C104.061 13.0664 103.688 12.7436 103.194 12.5283C102.713 12.3004 102.124 12.1865 101.428 12.1865C100.618 12.1865 99.8389 12.3194 99.0919 12.5853C98.3575 12.8385 97.7878 13.1614 97.3826 13.5539L96.8698 12.9272C97.6421 12.1675 98.3322 11.5471 98.9399 11.066C99.5603 10.5722 100.143 10.186 100.687 9.90749C101.232 9.62895 101.77 9.43903 102.301 9.33774C102.833 9.22379 103.397 9.16682 103.992 9.16682C105.6 9.16682 106.764 9.64794 107.486 10.6102C108.221 11.5724 108.588 12.9968 108.588 14.8833Z" fill="#CEAF72"/>
<path d="M121.397 9.14783C122.739 9.14783 123.897 9.4327 124.872 10.0025C125.847 10.5722 126.613 11.4015 127.17 12.4904C127.74 13.5792 128.088 14.9023 128.215 16.4596H116.136L116.155 15.1492L126.088 14.8453L124.321 15.681C124.233 14.5541 124.056 13.6109 123.79 12.8512C123.524 12.0915 123.157 11.5155 122.688 11.123C122.232 10.7305 121.656 10.5342 120.96 10.5342C120.124 10.5342 119.396 10.7748 118.776 11.2559C118.155 11.737 117.674 12.465 117.332 13.4399C116.991 14.4022 116.82 15.6177 116.82 17.0863C116.82 18.7196 117.079 20.0934 117.598 21.2075C118.13 22.3091 118.883 23.1384 119.858 23.6954C120.833 24.2525 121.992 24.5311 123.334 24.5311C123.904 24.5311 124.454 24.4614 124.986 24.3222C125.518 24.1829 126.031 23.9677 126.524 23.6765C127.031 23.3853 127.512 23.0181 127.968 22.5749L128.424 23.0877C127.715 24.0879 126.987 24.9109 126.24 25.5566C125.505 26.1897 124.727 26.6581 123.904 26.962C123.081 27.2659 122.194 27.4178 121.245 27.4178C119.637 27.4178 118.212 27.0506 116.972 26.3163C115.731 25.582 114.756 24.5501 114.047 23.2207C113.351 21.8912 113.002 20.3403 113.002 18.5677C113.002 16.8584 113.332 15.2885 113.99 13.8578C114.648 12.4271 115.604 11.2876 116.858 10.4393C118.111 9.5783 119.624 9.14783 121.397 9.14783Z" fill="#CEAF72"/>
<path d="M142.601 9.26178C143.259 9.26178 143.753 9.43903 144.082 9.79354C144.411 10.1354 144.576 10.5912 144.576 11.1609C144.576 11.8573 144.354 12.4144 143.911 12.8322C143.468 13.2374 142.911 13.4399 142.24 13.4399C141.886 13.4399 141.556 13.3956 141.252 13.307C140.949 13.2057 140.638 13.1108 140.322 13.0221C140.005 12.9208 139.651 12.8702 139.258 12.8702C138.942 12.8702 138.619 12.9208 138.29 13.0221C137.961 13.1108 137.638 13.2437 137.321 13.421C137.017 13.5855 136.726 13.7881 136.448 14.0287L136.182 13.231C136.992 12.4587 137.714 11.8193 138.347 11.3129C138.992 10.7938 139.569 10.3886 140.075 10.0974C140.581 9.79354 141.037 9.5783 141.442 9.45169C141.86 9.32508 142.246 9.26178 142.601 9.26178ZM136.922 12.7373V25.5186L139.771 26.3543V27H130.408V26.3543L133.029 25.5376V13.1931C132.864 13.0031 132.656 12.8322 132.402 12.6803C132.162 12.5157 131.871 12.3448 131.529 12.1675C131.2 11.9776 130.813 11.775 130.37 11.5598V11.066L136.372 9.09085H136.732L136.922 12.7373Z" fill="#CEAF72"/>
<path d="M152.571 9.14783C153.419 9.14783 154.173 9.22379 154.831 9.37573C155.489 9.52766 156.198 9.78721 156.958 10.1544L157.376 14.9213H156.559L154.318 10.0974L155.743 11.7307C155.198 11.2496 154.679 10.9077 154.185 10.7051C153.691 10.4899 153.141 10.3823 152.533 10.3823C151.52 10.3823 150.735 10.5912 150.178 11.009C149.634 11.4268 149.361 12.0282 149.361 12.8132C149.361 13.3576 149.494 13.8261 149.76 14.2186C150.026 14.5984 150.457 14.9529 151.052 15.2821C151.647 15.6113 152.432 15.9595 153.407 16.3267C154.128 16.6052 154.768 16.9218 155.325 17.2763C155.894 17.6181 156.369 18.0106 156.749 18.4537C157.142 18.8842 157.433 19.3843 157.623 19.9541C157.825 20.5112 157.927 21.1506 157.927 21.8722C157.927 23.0244 157.623 24.0183 157.015 24.8539C156.42 25.6769 155.61 26.31 154.584 26.7531C153.571 27.1962 152.425 27.4178 151.147 27.4178C150.26 27.4178 149.463 27.3418 148.754 27.1899C148.045 27.0506 147.367 26.8291 146.721 26.5252L145.848 21.3785H146.721L149.589 26.6771L147.69 25.3477C148.108 25.5756 148.494 25.7529 148.849 25.8795C149.203 26.0061 149.545 26.0947 149.874 26.1454C150.216 26.196 150.558 26.2213 150.9 26.2213C152.026 26.2213 152.957 25.9681 153.691 25.4617C154.438 24.9552 154.812 24.1892 154.812 23.1637C154.812 22.6826 154.711 22.2711 154.508 21.9292C154.318 21.5747 154.033 21.2582 153.653 20.9796C153.274 20.6884 152.811 20.4162 152.267 20.163C151.735 19.9098 151.134 19.6502 150.463 19.3843C149.551 19.0172 148.792 18.5993 148.184 18.1309C147.576 17.6624 147.12 17.1053 146.816 16.4596C146.525 15.8139 146.38 15.0542 146.38 14.1806C146.38 13.1171 146.652 12.2118 147.196 11.4648C147.753 10.7178 148.5 10.1481 149.437 9.75556C150.387 9.3504 151.431 9.14783 152.571 9.14783Z" fill="#CEAF72"/>
<path d="M171.358 15.8709L171.567 17.0863C170.137 17.4662 168.965 17.846 168.054 18.2258C167.155 18.6057 166.459 18.9918 165.965 19.3843C165.484 19.7642 165.148 20.1757 164.958 20.6188C164.768 21.0619 164.673 21.5494 164.673 22.0812C164.673 23.0054 164.92 23.7018 165.414 24.1702C165.92 24.626 166.547 24.8539 167.294 24.8539C167.864 24.8539 168.37 24.721 168.814 24.4551C169.269 24.1892 169.63 23.8221 169.896 23.3536C170.175 22.8851 170.314 22.347 170.314 21.7393V14.1047C170.314 13.1171 170.054 12.3448 169.535 11.7877C169.029 11.2179 168.225 10.933 167.123 10.933C166.667 10.933 166.186 10.9837 165.68 11.085C165.173 11.1863 164.718 11.3319 164.313 11.5218L165.224 10.5532C165.161 11.0723 165.091 11.5534 165.015 11.9966C164.939 12.4271 164.844 12.8006 164.73 13.1171C164.629 13.4336 164.502 13.6805 164.35 13.8578C164.161 14.073 163.895 14.2439 163.553 14.3705C163.224 14.4845 162.875 14.5415 162.508 14.5415C162.04 14.5415 161.673 14.4465 161.407 14.2566C161.154 14.0667 161.027 13.8008 161.027 13.4589C161.027 12.9905 161.255 12.5094 161.711 12.0156C162.166 11.5091 162.768 11.047 163.515 10.6292C164.275 10.2114 165.11 9.87584 166.022 9.62262C166.933 9.35673 167.845 9.22379 168.757 9.22379C170.086 9.22379 171.143 9.42637 171.928 9.83153C172.726 10.224 173.302 10.7874 173.656 11.5218C174.011 12.2435 174.188 13.1171 174.188 14.1426V23.5435C174.188 23.9233 174.245 24.2335 174.359 24.4741C174.473 24.7147 174.631 24.8983 174.834 25.0249C175.049 25.1388 175.309 25.1958 175.613 25.1958C175.942 25.1958 176.277 25.1388 176.619 25.0249C176.961 24.9109 177.309 24.7463 177.664 24.5311V25.3857C176.955 26.1327 176.258 26.6581 175.575 26.962C174.904 27.2532 174.233 27.3988 173.561 27.3988C172.827 27.3988 172.226 27.2469 171.757 26.943C171.289 26.6265 170.941 26.177 170.713 25.5946C170.485 24.9995 170.365 24.2969 170.352 23.4865L170.466 23.4106C170.263 24.2209 169.928 24.9299 169.459 25.5376C169.003 26.1327 168.446 26.5948 167.788 26.924C167.13 27.2532 166.421 27.4178 165.661 27.4178C164.23 27.4178 163.059 27.038 162.147 26.2783C161.249 25.506 160.799 24.3918 160.799 22.9358C160.799 22.1888 160.938 21.5177 161.217 20.9227C161.508 20.3276 162.027 19.7642 162.774 19.2324C163.534 18.688 164.604 18.1435 165.984 17.5991C167.377 17.0547 169.168 16.4786 171.358 15.8709ZM173.353 0.981405C173.087 2.47542 172.808 3.6529 172.517 4.51386C172.238 5.36215 171.903 5.95722 171.51 6.29908C171.118 6.64092 170.637 6.81185 170.067 6.81185C169.523 6.81185 169.035 6.65359 168.605 6.33706C168.174 6.00787 167.775 5.62804 167.408 5.19756C167.054 4.76708 166.699 4.39358 166.345 4.07705C165.99 3.74786 165.623 3.58327 165.243 3.58327C164.977 3.58327 164.743 3.66556 164.54 3.83016C164.338 3.99475 164.148 4.29862 163.971 4.74176C163.793 5.17224 163.61 5.79896 163.42 6.62193H162.28C162.546 5.11526 162.819 3.94411 163.097 3.10847C163.388 2.26018 163.73 1.66511 164.123 1.32326C164.515 0.968744 164.996 0.791489 165.566 0.791489C166.11 0.791489 166.592 0.956083 167.009 1.28527C167.44 1.6018 167.839 1.9753 168.206 2.40578C168.573 2.83626 168.927 3.21609 169.269 3.54528C169.624 3.87447 169.991 4.03906 170.371 4.03906C170.637 4.03906 170.871 3.95677 171.074 3.79218C171.276 3.62758 171.466 3.32371 171.643 2.88057C171.821 2.43743 172.004 1.80438 172.194 0.981405H173.353Z" fill="#CEAF72"/>
<path d="M187.545 26.0504C188.482 26.0504 189.293 25.7909 189.976 25.2718C190.673 24.7527 191.204 23.9487 191.572 22.8598C191.951 21.771 192.141 20.3846 192.141 18.7006C192.141 16.9154 191.958 15.4151 191.59 14.1996C191.223 12.9841 190.692 12.0662 189.995 11.4458C189.299 10.8254 188.451 10.5152 187.45 10.5152C186.513 10.5152 185.697 10.7748 185 11.2939C184.317 11.813 183.785 12.617 183.405 13.7058C183.038 14.782 182.854 16.1684 182.854 17.865C182.854 19.6376 183.038 21.1379 183.405 22.366C183.772 23.5815 184.304 24.4994 185 25.1198C185.697 25.7402 186.545 26.0504 187.545 26.0504ZM187.393 27.4178C185.684 27.4178 184.171 27.038 182.854 26.2783C181.538 25.506 180.506 24.4425 179.759 23.0877C179.012 21.733 178.638 20.1757 178.638 18.4158C178.638 16.6052 179.031 15.0036 179.816 13.6109C180.601 12.2181 181.664 11.1293 183.006 10.3443C184.361 9.54665 185.893 9.14783 187.602 9.14783C189.324 9.14783 190.843 9.52766 192.16 10.2873C193.477 11.047 194.503 12.1042 195.237 13.4589C195.984 14.8137 196.357 16.3773 196.357 18.1499C196.357 19.9478 195.959 21.5494 195.161 22.9548C194.376 24.3475 193.306 25.4427 191.951 26.2403C190.609 27.0253 189.09 27.4178 187.393 27.4178Z" fill="#CEAF72"/>
<path d="M22.0183 48.6678C22.0183 44.9202 21.0117 42.1474 18.9986 40.3495C16.9982 38.539 14.1747 37.6337 10.5283 37.6337H5.53353L5.38159 35.9244H11.5159C14.8205 35.9244 17.5869 36.3866 19.8153 37.3108C22.0563 38.2351 23.7402 39.6151 24.8671 41.451C26.0065 43.2742 26.5763 45.5405 26.5763 48.25C26.5763 51.2001 25.9243 53.7006 24.6202 55.7517C23.3161 57.7902 21.5372 59.3412 19.2835 60.4047C17.0298 61.4682 14.4786 62 11.6299 62H5.38159L5.53353 60.2907H11.0221C13.2631 60.2907 15.2066 59.8983 16.8526 59.1133C18.4985 58.3283 19.771 57.0812 20.6699 55.3719C21.5688 53.6627 22.0183 51.428 22.0183 48.6678ZM0.500732 62V61.2973L3.5394 60.3477V37.5577L0.500732 36.6271V35.9244H7.88849V62H0.500732Z" fill="#CEAF72"/>
<path d="M33.5872 39.8367C32.7895 39.8367 32.1502 39.5772 31.669 39.0581C31.1879 38.539 30.9474 37.9186 30.9474 37.1969C30.9474 36.4879 31.1879 35.8864 31.669 35.3927C32.1502 34.8862 32.7895 34.633 33.5872 34.633C34.3848 34.633 35.0179 34.8862 35.4864 35.3927C35.9548 35.8864 36.1891 36.4879 36.1891 37.1969C36.1891 37.9186 35.9548 38.539 35.4864 39.0581C35.0179 39.5772 34.3848 39.8367 33.5872 39.8367ZM35.8092 44.0909L35.7143 47.5853V60.5376L38.3731 61.3543V62H29.2001V61.3543L31.84 60.5376V48.0221C31.688 47.8702 31.4728 47.6993 31.1942 47.5094C30.9284 47.3194 30.6182 47.1232 30.2637 46.9206C29.9218 46.7054 29.561 46.5028 29.1811 46.3129V45.7811L35.4484 44.0909H35.8092Z" fill="#CEAF72"/>
<path d="M52.0937 44.2618C52.7521 44.2618 53.2459 44.439 53.575 44.7935C53.9042 45.1354 54.0688 45.5912 54.0688 46.1609C54.0688 46.8573 53.8473 47.4144 53.4041 47.8322C52.961 48.2374 52.4039 48.4399 51.7328 48.4399C51.3783 48.4399 51.0491 48.3956 50.7453 48.307C50.4414 48.2057 50.1312 48.1108 49.8147 48.0221C49.4982 47.9208 49.1436 47.8702 48.7512 47.8702C48.4346 47.8702 48.1118 47.9208 47.7826 48.0221C47.4534 48.1108 47.1305 48.2437 46.814 48.421C46.5101 48.5855 46.2189 48.7881 45.9404 49.0287L45.6745 48.231C46.4848 47.4587 47.2065 46.8193 47.8396 46.3129C48.4853 45.7938 49.0614 45.3886 49.5678 45.0974C50.0742 44.7935 50.53 44.5783 50.9352 44.4517C51.353 44.3251 51.7392 44.2618 52.0937 44.2618ZM46.4152 47.7373V60.5187L49.2639 61.3543V62H39.901V61.3543L42.5219 60.5376V48.1931C42.3573 48.0031 42.1484 47.8322 41.8952 47.6803C41.6546 47.5157 41.3634 47.3448 41.0215 47.1675C40.6924 46.9776 40.3062 46.775 39.8631 46.5598V46.066L45.8644 44.0909H46.2253L46.4152 47.7373Z" fill="#CEAF72"/>
<path d="M63.4572 44.1478C64.7993 44.1478 65.9578 44.4327 66.9327 45.0025C67.9076 45.5722 68.6736 46.4015 69.2307 47.4904C69.8005 48.5792 70.1486 49.9023 70.2752 51.4596H58.1965L58.2155 50.1492L68.1482 49.8453L66.382 50.681C66.2933 49.5541 66.1161 48.6109 65.8502 47.8512C65.5843 47.0915 65.2171 46.5155 64.7487 46.123C64.2929 45.7305 63.7168 45.5342 63.0204 45.5342C62.1848 45.5342 61.4568 45.7748 60.8364 46.2559C60.216 46.737 59.7349 47.465 59.393 48.4399C59.0512 49.4022 58.8802 50.6177 58.8802 52.0863C58.8802 53.7196 59.1398 55.0934 59.6589 56.2075C60.1907 57.3091 60.944 58.1384 61.9189 58.6954C62.8938 59.2525 64.0523 59.5311 65.3944 59.5311C65.9641 59.5311 66.5149 59.4614 67.0467 59.3222C67.5784 59.1829 68.0912 58.9677 68.585 58.6765C69.0914 58.3853 69.5726 58.0181 70.0284 57.5749L70.4842 58.0877C69.7751 59.0879 69.0471 59.9109 68.3001 60.5566C67.5658 61.1897 66.7871 61.6582 65.9641 61.962C65.1412 62.2659 64.2549 62.4178 63.3053 62.4178C61.6973 62.4178 60.273 62.0506 59.0322 61.3163C57.7914 60.582 56.8165 59.5501 56.1075 58.2207C55.4111 56.8912 55.0629 55.3403 55.0629 53.5677C55.0629 51.8584 55.3921 50.2885 56.0505 48.8578C56.7089 47.4271 57.6648 46.2876 58.9182 45.4393C60.1717 44.5783 61.6847 44.1478 63.4572 44.1478Z" fill="#CEAF72"/>
<path d="M76.8749 39.8367C76.0772 39.8367 75.4378 39.5772 74.9567 39.0581C74.4756 38.539 74.235 37.9186 74.235 37.1969C74.235 36.4879 74.4756 35.8864 74.9567 35.3927C75.4378 34.8862 76.0772 34.633 76.8749 34.633C77.6725 34.633 78.3056 34.8862 78.774 35.3927C79.2425 35.8864 79.4767 36.4879 79.4767 37.1969C79.4767 37.9186 79.2425 38.539 78.774 39.0581C78.3056 39.5772 77.6725 39.8367 76.8749 39.8367ZM79.0969 44.0909L79.0019 47.5853V60.5376L81.6608 61.3543V62H72.4878V61.3543L75.1276 60.5376V48.0221C74.9757 47.8702 74.7604 47.6993 74.4819 47.5094C74.216 47.3194 73.9058 47.1232 73.5513 46.9206C73.2095 46.7054 72.8486 46.5028 72.4688 46.3129V45.7811L78.736 44.0909H79.0969Z" fill="#CEAF72"/>
<path d="M89.1711 57.1001C89.1711 57.9358 89.437 58.5688 89.9687 58.9993C90.5005 59.4171 91.2475 59.626 92.2097 59.626C92.7035 59.626 93.229 59.5817 93.786 59.4931C94.3558 59.3918 94.9888 59.2399 95.6852 59.0373V59.8729C94.7483 60.5186 93.938 61.0251 93.2543 61.3923C92.5832 61.7594 91.9818 62.0127 91.4501 62.1519C90.9183 62.3039 90.3865 62.3798 89.8548 62.3798C88.9812 62.3798 88.1962 62.2152 87.4998 61.886C86.8161 61.5442 86.278 61.0314 85.8855 60.3477C85.493 59.6514 85.2968 58.7714 85.2968 57.7079V47.3764L82.9608 45.7431V45.3253C83.2014 45.1481 83.4799 44.9581 83.7964 44.7556C84.1256 44.5403 84.4801 44.3061 84.86 44.0529C85.2398 43.7996 85.6323 43.5338 86.0374 43.2552C86.4426 42.9767 86.8604 42.6918 87.2909 42.4006C87.7214 42.1094 88.1519 41.8245 88.5823 41.546H89.1711V57.1001ZM87.6897 46.6547V44.5656H95.0965L94.7736 46.6547H87.6897Z" fill="#CEAF72"/>
<path d="M105.755 61.0504C106.692 61.0504 107.502 60.7909 108.186 60.2718C108.882 59.7526 109.414 58.9487 109.781 57.8598C110.161 56.771 110.351 55.3846 110.351 53.7006C110.351 51.9154 110.167 50.4151 109.8 49.1996C109.433 47.9841 108.901 47.0662 108.205 46.4458C107.509 45.8254 106.66 45.5152 105.66 45.5152C104.723 45.5152 103.906 45.7748 103.21 46.2939C102.526 46.813 101.995 47.617 101.615 48.7058C101.248 49.782 101.064 51.1684 101.064 52.865C101.064 54.6376 101.248 56.1379 101.615 57.366C101.982 58.5815 102.514 59.4994 103.21 60.1198C103.906 60.7402 104.755 61.0504 105.755 61.0504ZM105.603 62.4178C103.894 62.4178 102.381 62.038 101.064 61.2783C99.7473 60.506 98.7154 59.4425 97.9684 58.0877C97.2214 56.733 96.8479 55.1757 96.8479 53.4158C96.8479 51.6052 97.2404 50.0036 98.0253 48.6109C98.8103 47.2181 99.8739 46.1293 101.216 45.3443C102.571 44.5467 104.103 44.1478 105.812 44.1478C107.534 44.1478 109.053 44.5277 110.37 45.2873C111.687 46.047 112.712 47.1042 113.447 48.4589C114.194 49.8137 114.567 51.3773 114.567 53.1499C114.567 54.9478 114.168 56.5494 113.371 57.9548C112.586 59.3475 111.516 60.4427 110.161 61.2403C108.819 62.0253 107.3 62.4178 105.603 62.4178Z" fill="#CEAF72"/>
<path d="M141.834 43.1033L141.568 48.345L141.834 53.5867H140.694L139.612 49.2376L130.705 49.0667V47.6043L139.612 47.4144L140.694 43.1033H141.834ZM147.17 43.3502L146.373 43.5211L142.688 37.0639L144.531 37.6337H130.439V35.9244H143.144L145.499 34.8419H145.803L147.17 43.3502ZM143.144 60.8795L147.246 54.2894L147.987 54.4793L146.297 63.1775H145.955L143.581 62H130.439V60.2907H144.815L143.144 60.8795ZM125.653 62V61.2973L128.692 60.3477V37.5577L125.653 36.6271V35.9244H133.041V62H125.653Z" fill="#CEAF72"/>
<path d="M156.185 60.5376L158.844 61.3543V62H149.671V61.3543L152.31 60.5376V38.6023C152.133 38.425 151.905 38.2414 151.627 38.0515C151.361 37.8616 151.032 37.659 150.639 37.4438C150.259 37.2159 149.822 36.988 149.329 36.7601V36.2853L155.995 34.557H156.337L156.185 37.9565V60.5376Z" fill="#CEAF72"/>
<path d="M169.173 44.1478C170.515 44.1478 171.673 44.4327 172.648 45.0025C173.623 45.5722 174.389 46.4015 174.946 47.4904C175.516 48.5792 175.864 49.9023 175.991 51.4596H163.912L163.931 50.1492L173.864 49.8453L172.097 50.681C172.009 49.5541 171.831 48.6109 171.566 47.8512C171.3 47.0915 170.932 46.5155 170.464 46.123C170.008 45.7305 169.432 45.5342 168.736 45.5342C167.9 45.5342 167.172 45.7748 166.552 46.2559C165.931 46.737 165.45 47.465 165.108 48.4399C164.767 49.4022 164.596 50.6177 164.596 52.0863C164.596 53.7196 164.855 55.0934 165.374 56.2075C165.906 57.3091 166.659 58.1384 167.634 58.6954C168.609 59.2525 169.768 59.5311 171.11 59.5311C171.68 59.5311 172.23 59.4614 172.762 59.3222C173.294 59.1829 173.807 58.9677 174.3 58.6765C174.807 58.3853 175.288 58.0181 175.744 57.5749L176.2 58.0877C175.491 59.0879 174.762 59.9109 174.015 60.5566C173.281 61.1897 172.502 61.6582 171.68 61.962C170.857 62.2659 169.97 62.4178 169.021 62.4178C167.413 62.4178 165.988 62.0506 164.748 61.3163C163.507 60.582 162.532 59.5501 161.823 58.2207C161.126 56.8912 160.778 55.3403 160.778 53.5677C160.778 51.8584 161.107 50.2885 161.766 48.8578C162.424 47.4271 163.38 46.2876 164.634 45.4393C165.887 44.5783 167.4 44.1478 169.173 44.1478Z" fill="#CEAF72"/>
<path d="M182.59 39.8367C181.793 39.8367 181.153 39.5772 180.672 39.0581C180.191 38.539 179.95 37.9186 179.95 37.1969C179.95 36.4879 180.191 35.8864 180.672 35.3927C181.153 34.8862 181.793 34.633 182.59 34.633C183.388 34.633 184.021 34.8862 184.489 35.3927C184.958 35.8864 185.192 36.4879 185.192 37.1969C185.192 37.9186 184.958 38.539 184.489 39.0581C184.021 39.5772 183.388 39.8367 182.59 39.8367ZM184.812 44.0909L184.717 47.5853V60.5376L187.376 61.3543V62H178.203V61.3543L180.843 60.5376V48.0221C180.691 47.8702 180.476 47.6993 180.197 47.5094C179.931 47.3194 179.621 47.1232 179.267 46.9206C178.925 46.7054 178.564 46.5028 178.184 46.3129V45.7811L184.451 44.0909H184.812Z" fill="#CEAF72"/>
<path d="M194.886 57.1001C194.886 57.9358 195.152 58.5688 195.684 58.9993C196.216 59.4171 196.963 59.626 197.925 59.626C198.419 59.626 198.944 59.5817 199.501 59.4931C200.071 59.3918 200.704 59.2399 201.401 59.0373V59.8729C200.464 60.5186 199.653 61.0251 198.97 61.3923C198.299 61.7594 197.697 62.0127 197.165 62.1519C196.634 62.3039 196.102 62.3798 195.57 62.3798C194.697 62.3798 193.912 62.2152 193.215 61.886C192.531 61.5442 191.993 61.0314 191.601 60.3477C191.208 59.6514 191.012 58.7714 191.012 57.7079V47.3764L188.676 45.7431V45.3253C188.917 45.1481 189.195 44.9581 189.512 44.7556C189.841 44.5403 190.195 44.3061 190.575 44.0529C190.955 43.7996 191.348 43.5338 191.753 43.2552C192.158 42.9767 192.576 42.6918 193.006 42.4006C193.437 42.1094 193.867 41.8245 194.298 41.546H194.886V57.1001ZM193.405 46.6547V44.5656H200.812L200.489 46.6547H193.405Z" fill="#CEAF72"/>
<path d="M211.47 61.0504C212.407 61.0504 213.218 60.7909 213.901 60.2718C214.598 59.7526 215.129 58.9487 215.497 57.8598C215.876 56.771 216.066 55.3846 216.066 53.7006C216.066 51.9154 215.883 50.4151 215.516 49.1996C215.148 47.9841 214.617 47.0662 213.92 46.4458C213.224 45.8254 212.376 45.5152 211.375 45.5152C210.438 45.5152 209.622 45.7748 208.925 46.2939C208.242 46.813 207.71 47.617 207.33 48.7058C206.963 49.782 206.779 51.1684 206.779 52.865C206.779 54.6376 206.963 56.1379 207.33 57.366C207.697 58.5815 208.229 59.4994 208.925 60.1198C209.622 60.7402 210.47 61.0504 211.47 61.0504ZM211.318 62.4178C209.609 62.4178 208.096 62.038 206.779 61.2783C205.463 60.506 204.431 59.4425 203.684 58.0877C202.937 56.733 202.563 55.1757 202.563 53.4158C202.563 51.6052 202.956 50.0036 203.741 48.6109C204.526 47.2181 205.589 46.1293 206.931 45.3443C208.286 44.5467 209.818 44.1478 211.527 44.1478C213.249 44.1478 214.769 44.5277 216.085 45.2873C217.402 46.047 218.428 47.1042 219.162 48.4589C219.909 49.8137 220.282 51.3773 220.282 53.1499C220.282 54.9478 219.884 56.5494 219.086 57.9548C218.301 59.3475 217.231 60.4427 215.876 61.2403C214.534 62.0253 213.015 62.4178 211.318 62.4178Z" fill="#CEAF72"/>
<path d="M234.703 44.2618C235.361 44.2618 235.855 44.439 236.184 44.7935C236.514 45.1354 236.678 45.5912 236.678 46.1609C236.678 46.8573 236.457 47.4144 236.014 47.8322C235.57 48.2374 235.013 48.4399 234.342 48.4399C233.988 48.4399 233.659 48.3956 233.355 48.307C233.051 48.2057 232.741 48.1108 232.424 48.0221C232.108 47.9208 231.753 47.8702 231.361 47.8702C231.044 47.8702 230.721 47.9208 230.392 48.0221C230.063 48.1108 229.74 48.2437 229.423 48.421C229.12 48.5855 228.828 48.7881 228.55 49.0287L228.284 48.231C229.094 47.4587 229.816 46.8193 230.449 46.3129C231.095 45.7938 231.671 45.3886 232.177 45.0974C232.684 44.7935 233.139 44.5783 233.545 44.4517C233.962 44.3251 234.349 44.2618 234.703 44.2618ZM229.025 47.7373V60.5187L231.873 61.3543V62H222.51V61.3543L225.131 60.5376V48.1931C224.967 48.0031 224.758 47.8322 224.505 47.6803C224.264 47.5157 223.973 47.3448 223.631 47.1675C223.302 46.9776 222.916 46.775 222.472 46.5598V46.066L228.474 44.0909H228.835L229.025 47.7373Z" fill="#CEAF72"/>
<path d="M248.438 50.8709L248.647 52.0863C247.216 52.4662 246.045 52.846 245.133 53.2258C244.234 53.6057 243.538 53.9918 243.044 54.3843C242.563 54.7642 242.228 55.1757 242.038 55.6188C241.848 56.0619 241.753 56.5494 241.753 57.0812C241.753 58.0054 242 58.7018 242.494 59.1702C243 59.626 243.627 59.8539 244.374 59.8539C244.943 59.8539 245.45 59.721 245.893 59.4551C246.349 59.1892 246.71 58.8221 246.976 58.3536C247.254 57.8851 247.393 57.347 247.393 56.7393V49.1047C247.393 48.1171 247.134 47.3448 246.615 46.7877C246.108 46.2179 245.304 45.933 244.203 45.933C243.747 45.933 243.266 45.9837 242.759 46.085C242.253 46.1863 241.797 46.3319 241.392 46.5218L242.304 45.5532C242.24 46.0723 242.171 46.5534 242.095 46.9966C242.019 47.4271 241.924 47.8006 241.81 48.1171C241.709 48.4336 241.582 48.6805 241.43 48.8578C241.24 49.073 240.974 49.2439 240.632 49.3705C240.303 49.4845 239.955 49.5415 239.588 49.5415C239.119 49.5415 238.752 49.4465 238.486 49.2566C238.233 49.0667 238.106 48.8008 238.106 48.4589C238.106 47.9905 238.334 47.5094 238.79 47.0156C239.246 46.5091 239.847 46.047 240.594 45.6292C241.354 45.2114 242.19 44.8758 243.101 44.6226C244.013 44.3567 244.924 44.2238 245.836 44.2238C247.165 44.2238 248.223 44.4264 249.008 44.8315C249.805 45.224 250.381 45.7874 250.736 46.5218C251.09 47.2435 251.268 48.1171 251.268 49.1426V58.5435C251.268 58.9233 251.325 59.2335 251.439 59.4741C251.553 59.7147 251.711 59.8983 251.913 60.0249C252.129 60.1388 252.388 60.1958 252.692 60.1958C253.021 60.1958 253.357 60.1388 253.699 60.0249C254.04 59.9109 254.389 59.7463 254.743 59.5311V60.3857C254.034 61.1327 253.338 61.6582 252.654 61.962C251.983 62.2532 251.312 62.3988 250.641 62.3988C249.907 62.3988 249.305 62.2469 248.837 61.943C248.368 61.6265 248.02 61.177 247.792 60.5946C247.564 59.9995 247.444 59.2968 247.431 58.4865L247.545 58.4106C247.343 59.2209 247.007 59.9299 246.539 60.5376C246.083 61.1327 245.526 61.5948 244.867 61.924C244.209 62.2532 243.5 62.4178 242.74 62.4178C241.31 62.4178 240.139 62.038 239.227 61.2783C238.328 60.506 237.879 59.3918 237.879 57.9358C237.879 57.1888 238.018 56.5177 238.296 55.9227C238.588 55.3276 239.107 54.7642 239.854 54.2324C240.613 53.688 241.683 53.1435 243.063 52.5991C244.456 52.0547 246.248 51.4786 248.438 50.8709Z" fill="#CEAF72"/>
<path d="M261.64 60.5376L264.299 61.3543V62H255.126V61.3543L257.766 60.5376V38.6023C257.589 38.425 257.361 38.2414 257.082 38.0515C256.816 37.8616 256.487 37.659 256.095 37.4438C255.715 37.2159 255.278 36.988 254.784 36.7601V36.2853L261.45 34.557H261.792L261.64 37.9565V60.5376Z" fill="#CEAF72"/>
<path d="M102.915 94.4171L107.017 89.0425H107.701L106.105 97.5318H105.726L103.618 97H89.4307V96.5442L96.7235 88.2069C97.9517 86.7888 98.9076 85.5164 99.5913 84.3895C100.288 83.2627 100.775 82.2435 101.054 81.3319C101.345 80.4076 101.49 79.553 101.49 78.768C101.49 77.236 101.035 76.0142 100.123 75.1026C99.2241 74.191 98.0213 73.7352 96.5146 73.7352C95.5271 73.7352 94.6091 73.9061 93.7608 74.248C92.9125 74.5898 92.1719 75.1596 91.5388 75.9572C90.9184 76.7549 90.431 77.8247 90.0764 79.1668L89.0319 78.9769C89.6016 76.2421 90.6905 74.1467 92.2985 72.6907C93.9191 71.2346 95.9006 70.5066 98.2429 70.5066C99.7369 70.5066 101.047 70.7978 102.174 71.3802C103.301 71.9626 104.181 72.7793 104.814 73.8302C105.46 74.881 105.783 76.1155 105.783 77.5335C105.783 78.3312 105.675 79.1098 105.46 79.8695C105.257 80.6292 104.896 81.4332 104.377 82.2814C103.858 83.1171 103.124 84.0603 102.174 85.1112C101.225 86.1494 100.022 87.3586 98.5657 88.7386L92.5644 94.626L92.9442 93.2586H105.023L102.915 94.4171Z" fill="#CEAF72"/>
<path d="M120.876 95.9365C122.003 95.9365 122.965 95.4997 123.763 94.626C124.56 93.7524 125.174 92.4736 125.605 90.7897C126.035 89.1058 126.251 87.0484 126.251 84.6174C126.251 82.579 126.124 80.7748 125.871 79.2048C125.63 77.6222 125.269 76.2991 124.788 75.2355C124.32 74.1593 123.744 73.349 123.06 72.8046C122.389 72.2602 121.617 71.988 120.743 71.988C119.616 71.988 118.648 72.4248 117.837 73.2984C117.04 74.1593 116.426 75.4318 115.995 77.1157C115.565 78.7996 115.349 80.8634 115.349 83.307C115.349 85.3454 115.476 87.156 115.729 88.7386C115.982 90.3086 116.343 91.6254 116.812 92.6889C117.293 93.7524 117.875 94.5627 118.559 95.1198C119.243 95.6642 120.015 95.9365 120.876 95.9365ZM120.857 70.5066C122.832 70.5066 124.548 71.0637 126.004 72.1779C127.46 73.2921 128.587 74.8557 129.384 76.8688C130.194 78.8693 130.6 81.2243 130.6 83.9337C130.6 86.6305 130.188 88.9918 129.365 91.0176C128.555 93.0307 127.409 94.6007 125.928 95.7276C124.459 96.8544 122.743 97.4178 120.781 97.4178C118.818 97.4178 117.103 96.8607 115.634 95.7466C114.166 94.6324 113.026 93.0687 112.216 91.0556C111.418 89.0298 111.019 86.6749 111.019 83.9907C111.019 81.2939 111.424 78.9326 112.235 76.9068C113.058 74.881 114.21 73.311 115.691 72.1969C117.173 71.07 118.894 70.5066 120.857 70.5066Z" fill="#CEAF72"/>
<path d="M147.649 94.4171L151.751 89.0425H152.435L150.84 97.5318H150.46L148.352 97H134.165V96.5442L141.458 88.2069C142.686 86.7888 143.642 85.5164 144.326 84.3895C145.022 83.2627 145.509 82.2435 145.788 81.3319C146.079 80.4076 146.225 79.553 146.225 78.768C146.225 77.236 145.769 76.0142 144.857 75.1026C143.958 74.191 142.756 73.7352 141.249 73.7352C140.261 73.7352 139.343 73.9061 138.495 74.248C137.647 74.5898 136.906 75.1596 136.273 75.9572C135.653 76.7549 135.165 77.8247 134.811 79.1668L133.766 78.9769C134.336 76.2421 135.425 74.1467 137.033 72.6907C138.653 71.2346 140.635 70.5066 142.977 70.5066C144.471 70.5066 145.782 70.7978 146.908 71.3802C148.035 71.9626 148.915 72.7793 149.548 73.8302C150.194 74.881 150.517 76.1155 150.517 77.5335C150.517 78.3312 150.409 79.1098 150.194 79.8695C149.991 80.6292 149.631 81.4332 149.111 82.2814C148.592 83.1171 147.858 84.0603 146.908 85.1112C145.959 86.1494 144.756 87.3586 143.3 88.7386L137.299 94.626L137.678 93.2586H149.757L147.649 94.4171Z" fill="#CEAF72"/>
<path d="M170.016 94.4171L174.118 89.0425H174.802L173.207 97.5318H172.827L170.719 97H156.532V96.5442L163.825 88.2069C165.053 86.7888 166.009 85.5164 166.693 84.3895C167.389 83.2627 167.877 82.2435 168.155 81.3319C168.446 80.4076 168.592 79.553 168.592 78.768C168.592 77.236 168.136 76.0142 167.224 75.1026C166.326 74.191 165.123 73.7352 163.616 73.7352C162.629 73.7352 161.711 73.9061 160.862 74.248C160.014 74.5898 159.273 75.1596 158.64 75.9572C158.02 76.7549 157.532 77.8247 157.178 79.1668L156.133 78.9769C156.703 76.2421 157.792 74.1467 159.4 72.6907C161.021 71.2346 163.002 70.5066 165.344 70.5066C166.838 70.5066 168.149 70.7978 169.276 71.3802C170.402 71.9626 171.282 72.7793 171.915 73.8302C172.561 74.881 172.884 76.1155 172.884 77.5335C172.884 78.3312 172.776 79.1098 172.561 79.8695C172.359 80.6292 171.998 81.4332 171.479 82.2814C170.96 83.1171 170.225 84.0603 169.276 85.1112C168.326 86.1494 167.123 87.3586 165.667 88.7386L159.666 94.626L160.046 93.2586H172.124L170.016 94.4171Z" fill="#CEAF72"/>
<path d="M55.1096 145.996C55.7183 145.996 56.2023 146.066 56.5616 146.205C56.9283 146.337 57.1923 146.506 57.3536 146.711C57.515 146.909 57.5956 147.107 57.5956 147.305C57.5956 147.518 57.5516 147.701 57.4636 147.855C57.383 148.009 57.2656 148.13 57.1116 148.218C56.9576 148.299 56.778 148.339 56.5726 148.339C56.3746 148.339 56.1913 148.292 56.0226 148.196C55.8613 148.101 55.7073 147.984 55.5606 147.844C55.414 147.698 55.2636 147.555 55.1096 147.415C54.963 147.276 54.8016 147.159 54.6256 147.063C54.4496 146.968 54.2553 146.92 54.0426 146.92C53.6246 146.92 53.225 147.041 52.8436 147.283C52.4696 147.525 52.158 147.899 51.9086 148.405C51.6666 148.904 51.5456 149.538 51.5456 150.308C51.5456 151.196 51.6923 151.962 51.9856 152.607C52.279 153.253 52.6933 153.748 53.2286 154.092C53.7713 154.437 54.4093 154.609 55.1426 154.609C55.5606 154.609 55.9676 154.525 56.3636 154.356C56.7596 154.18 57.1373 153.927 57.4966 153.597L57.7496 153.883C57.3976 154.353 57.0346 154.741 56.6606 155.049C56.2866 155.357 55.8906 155.585 55.4726 155.731C55.062 155.878 54.6146 155.951 54.1306 155.951C53.302 155.951 52.565 155.75 51.9196 155.346C51.2816 154.936 50.783 154.375 50.4236 153.663C50.0643 152.952 49.8846 152.142 49.8846 151.232C49.8846 150.521 49.9983 149.85 50.2256 149.219C50.4603 148.589 50.7976 148.035 51.2376 147.558C51.685 147.074 52.2313 146.693 52.8766 146.414C53.5293 146.136 54.2736 145.996 55.1096 145.996Z" fill="#CEAF72"/>
<path d="M63.8225 155.126C64.3872 155.126 64.8858 154.991 65.3185 154.719C65.7585 154.441 66.1032 154.012 66.3525 153.432C66.6018 152.853 66.7265 152.116 66.7265 151.221C66.7265 150.261 66.6018 149.454 66.3525 148.801C66.1105 148.149 65.7658 147.657 65.3185 147.327C64.8785 146.99 64.3578 146.821 63.7565 146.821C63.1992 146.821 62.7005 146.961 62.2605 147.239C61.8278 147.518 61.4868 147.947 61.2375 148.526C60.9882 149.098 60.8635 149.832 60.8635 150.726C60.8635 151.68 60.9845 152.486 61.2265 153.146C61.4758 153.799 61.8205 154.294 62.2605 154.631C62.7078 154.961 63.2285 155.126 63.8225 155.126ZM63.7675 155.951C62.8362 155.951 62.0112 155.746 61.2925 155.335C60.5812 154.917 60.0238 154.342 59.6205 153.608C59.2172 152.875 59.0155 152.032 59.0155 151.078C59.0155 150.096 59.2245 149.223 59.6425 148.46C60.0605 147.698 60.6325 147.096 61.3585 146.656C62.0845 146.216 62.9058 145.996 63.8225 145.996C64.7612 145.996 65.5862 146.205 66.2975 146.623C67.0088 147.034 67.5662 147.606 67.9695 148.339C68.3728 149.065 68.5745 149.909 68.5745 150.869C68.5745 151.852 68.3618 152.728 67.9365 153.498C67.5185 154.261 66.9465 154.862 66.2205 155.302C65.4945 155.735 64.6768 155.951 63.7675 155.951Z" fill="#CEAF72"/>
<path d="M73.2553 148.009V154.818L74.8503 155.335V155.731H69.9553V155.335L71.6163 154.818V148.174C71.499 148.05 71.323 147.929 71.0883 147.811C70.8537 147.694 70.487 147.547 69.9883 147.371V147.107L72.7273 145.985H72.9473L73.2553 148.009ZM79.2063 148.669V154.818L80.7903 155.335V155.731H75.9723V155.335L77.5673 154.818V149.318C77.5673 148.922 77.483 148.592 77.3143 148.328C77.1457 148.057 76.9073 147.855 76.5993 147.723C76.2913 147.591 75.9357 147.525 75.5323 147.525C75.0337 147.525 74.5497 147.621 74.0803 147.811C73.611 147.995 73.2847 148.226 73.1013 148.504L72.7163 148.108C73.0977 147.72 73.4497 147.39 73.7723 147.118C74.1023 146.847 74.425 146.631 74.7403 146.469C75.0557 146.308 75.3747 146.191 75.6973 146.117C76.02 146.037 76.361 145.996 76.7203 145.996C77.3217 145.996 77.802 146.125 78.1613 146.381C78.528 146.638 78.792 146.972 78.9533 147.382C79.122 147.786 79.2063 148.215 79.2063 148.669ZM85.1683 149.274V154.818L86.8513 155.335V155.731H81.9343V155.335L83.5293 154.818V149.318C83.5293 148.915 83.4413 148.581 83.2653 148.317C83.0967 148.053 82.8583 147.855 82.5503 147.723C82.2497 147.591 81.894 147.525 81.4833 147.525C80.9847 147.525 80.5007 147.621 80.0313 147.811C79.5693 147.995 79.243 148.226 79.0523 148.504L78.6673 148.108C79.0487 147.72 79.4007 147.39 79.7233 147.118C80.0533 146.847 80.376 146.631 80.6913 146.469C81.0067 146.308 81.3257 146.191 81.6483 146.117C81.971 146.037 82.3157 145.996 82.6823 145.996C83.5623 145.996 84.1967 146.282 84.5853 146.854C84.974 147.419 85.1683 148.226 85.1683 149.274Z" fill="#CEAF72"/>
<path d="M105.439 148.13C105.439 146.026 104.798 144.467 103.514 143.455C102.231 142.436 100.467 141.926 98.2235 141.926H95.2975V140.914H98.7625C100.684 140.914 102.282 141.171 103.558 141.684C104.834 142.198 105.791 142.971 106.429 144.005C107.067 145.039 107.386 146.334 107.386 147.888C107.386 149.553 107.009 150.968 106.253 152.134C105.505 153.3 104.482 154.191 103.184 154.807C101.894 155.423 100.431 155.731 98.7955 155.731H95.2975V154.73H98.4765C99.8698 154.73 101.087 154.507 102.128 154.059C103.177 153.605 103.991 152.893 104.57 151.925C105.15 150.95 105.439 149.685 105.439 148.13ZM92.8665 155.731V155.313L94.6155 154.741V141.904L92.8665 141.343V140.914H96.4195V155.731H92.8665Z" fill="#CEAF72"/>
<path d="M113.594 145.996C114.312 145.996 114.932 146.154 115.453 146.469C115.981 146.785 116.399 147.247 116.707 147.855C117.022 148.464 117.216 149.205 117.29 150.077H110.514L110.536 149.351L116.223 149.098L115.464 149.56C115.412 149.018 115.306 148.541 115.145 148.13C114.983 147.72 114.763 147.404 114.485 147.184C114.206 146.957 113.85 146.843 113.418 146.843C112.897 146.843 112.439 146.986 112.043 147.272C111.654 147.558 111.35 147.98 111.13 148.537C110.917 149.087 110.811 149.758 110.811 150.55C110.811 151.394 110.968 152.12 111.284 152.728C111.606 153.337 112.054 153.803 112.626 154.125C113.205 154.448 113.88 154.609 114.65 154.609C114.936 154.609 115.218 154.573 115.497 154.499C115.775 154.426 116.047 154.312 116.311 154.158C116.582 154.004 116.842 153.817 117.092 153.597L117.356 153.883C116.989 154.353 116.611 154.741 116.223 155.049C115.834 155.357 115.423 155.585 114.991 155.731C114.558 155.878 114.092 155.951 113.594 155.951C112.736 155.951 111.969 155.746 111.295 155.335C110.627 154.917 110.099 154.345 109.711 153.619C109.329 152.886 109.139 152.05 109.139 151.111C109.139 150.173 109.315 149.318 109.667 148.548C110.026 147.771 110.539 147.151 111.207 146.689C111.874 146.227 112.67 145.996 113.594 145.996Z" fill="#CEAF72"/>
<path d="M121.917 148.009V154.818L123.611 155.335V155.731H118.617V155.335L120.278 154.818V148.174C120.161 148.05 119.985 147.929 119.75 147.811C119.516 147.694 119.149 147.547 118.65 147.371V147.107L121.389 145.985H121.609L121.917 148.009ZM124.986 155.335L126.68 154.818V149.472C126.68 149.076 126.596 148.732 126.427 148.438C126.259 148.145 126.009 147.921 125.679 147.767C125.349 147.606 124.942 147.525 124.458 147.525C123.879 147.525 123.34 147.632 122.841 147.844C122.343 148.05 121.994 148.299 121.796 148.592L121.389 148.251C121.793 147.833 122.17 147.481 122.522 147.195C122.874 146.902 123.215 146.671 123.545 146.502C123.883 146.326 124.224 146.198 124.568 146.117C124.92 146.037 125.287 145.996 125.668 145.996C126.57 145.996 127.238 146.282 127.67 146.854C128.103 147.419 128.319 148.321 128.319 149.56V154.818L130.002 155.335V155.731H124.986V155.335Z" fill="#CEAF72"/>
<path d="M133.122 142.718C132.726 142.718 132.403 142.59 132.154 142.333C131.912 142.077 131.791 141.765 131.791 141.398C131.791 141.032 131.912 140.72 132.154 140.463C132.403 140.207 132.726 140.078 133.122 140.078C133.518 140.078 133.837 140.207 134.079 140.463C134.328 140.72 134.453 141.032 134.453 141.398C134.453 141.765 134.328 142.077 134.079 142.333C133.837 142.59 133.518 142.718 133.122 142.718ZM134.112 145.985L134.057 147.8V154.818L135.751 155.335V155.731H130.757V155.335L132.418 154.818V148.042C132.337 147.962 132.209 147.87 132.033 147.767C131.864 147.657 131.67 147.551 131.45 147.448C131.237 147.338 131.017 147.25 130.79 147.184V146.843L133.936 145.985H134.112Z" fill="#CEAF72"/>
<path d="M140.328 145.996C140.746 145.996 141.124 146.04 141.461 146.128C141.806 146.209 142.191 146.356 142.616 146.568L142.803 149.197H142.33L141.23 146.491L141.989 147.426C141.711 147.199 141.443 147.03 141.186 146.92C140.937 146.803 140.655 146.744 140.339 146.744C139.782 146.744 139.342 146.869 139.019 147.118C138.704 147.36 138.546 147.705 138.546 148.152C138.546 148.504 138.642 148.798 138.832 149.032C139.023 149.26 139.28 149.458 139.602 149.626C139.932 149.795 140.295 149.971 140.691 150.154C140.992 150.286 141.282 150.437 141.56 150.605C141.839 150.767 142.088 150.961 142.308 151.188C142.528 151.408 142.704 151.676 142.836 151.991C142.968 152.299 143.034 152.666 143.034 153.091C143.034 153.7 142.88 154.217 142.572 154.642C142.272 155.068 141.861 155.394 141.34 155.621C140.827 155.841 140.24 155.951 139.58 155.951C139.14 155.951 138.748 155.918 138.403 155.852C138.066 155.786 137.729 155.68 137.391 155.533L136.885 152.827H137.402L138.898 155.621L137.611 154.785C137.883 154.917 138.114 155.02 138.304 155.093C138.495 155.159 138.667 155.203 138.821 155.225C138.983 155.24 139.148 155.247 139.316 155.247C140.006 155.247 140.556 155.108 140.966 154.829C141.384 154.543 141.593 154.118 141.593 153.553C141.593 153.245 141.524 152.989 141.384 152.783C141.245 152.578 141.058 152.398 140.823 152.244C140.589 152.083 140.328 151.94 140.042 151.815C139.756 151.683 139.47 151.548 139.184 151.408C138.81 151.218 138.473 151.005 138.172 150.77C137.872 150.536 137.633 150.246 137.457 149.901C137.281 149.549 137.193 149.117 137.193 148.603C137.193 148.053 137.329 147.588 137.6 147.206C137.879 146.818 138.253 146.521 138.722 146.315C139.199 146.103 139.734 145.996 140.328 145.996Z" fill="#CEAF72"/>
<path d="M149.236 145.996C149.955 145.996 150.574 146.154 151.095 146.469C151.623 146.785 152.041 147.247 152.349 147.855C152.664 148.464 152.859 149.205 152.932 150.077H146.156L146.178 149.351L151.865 149.098L151.106 149.56C151.055 149.018 150.948 148.541 150.787 148.13C150.626 147.72 150.406 147.404 150.127 147.184C149.848 146.957 149.493 146.843 149.06 146.843C148.539 146.843 148.081 146.986 147.685 147.272C147.296 147.558 146.992 147.98 146.772 148.537C146.559 149.087 146.453 149.758 146.453 150.55C146.453 151.394 146.611 152.12 146.926 152.728C147.249 153.337 147.696 153.803 148.268 154.125C148.847 154.448 149.522 154.609 150.292 154.609C150.578 154.609 150.86 154.573 151.139 154.499C151.418 154.426 151.689 154.312 151.953 154.158C152.224 154.004 152.485 153.817 152.734 153.597L152.998 153.883C152.631 154.353 152.254 154.741 151.865 155.049C151.476 155.357 151.066 155.585 150.633 155.731C150.2 155.878 149.735 155.951 149.236 155.951C148.378 155.951 147.612 155.746 146.937 155.335C146.27 154.917 145.742 154.345 145.353 153.619C144.972 152.886 144.781 152.05 144.781 151.111C144.781 150.173 144.957 149.318 145.309 148.548C145.668 147.771 146.182 147.151 146.849 146.689C147.516 146.227 148.312 145.996 149.236 145.996Z" fill="#CEAF72"/>
<path d="M167.991 155.005C168.571 155.005 169.124 154.954 169.652 154.851C170.188 154.749 170.723 154.587 171.258 154.367L170.763 154.785L172.314 151.804H172.875L172.479 155.115C171.966 155.357 171.302 155.559 170.488 155.72C169.682 155.874 168.824 155.951 167.914 155.951C166.69 155.951 165.571 155.783 164.559 155.445C163.547 155.108 162.675 154.617 161.941 153.971C161.208 153.319 160.64 152.53 160.236 151.606C159.84 150.675 159.642 149.619 159.642 148.438C159.642 146.876 159.983 145.516 160.665 144.357C161.355 143.191 162.341 142.289 163.624 141.651C164.915 141.013 166.459 140.694 168.255 140.694C168.725 140.694 169.187 140.724 169.641 140.782C170.096 140.841 170.635 140.944 171.258 141.09L170.664 141.2L172.028 140.287H172.226L172.886 145.347L172.402 145.435L170.587 142.124L171.027 142.564C170.411 142.227 169.85 141.996 169.344 141.871C168.846 141.739 168.31 141.673 167.738 141.673C166.734 141.673 165.846 141.809 165.076 142.08C164.306 142.352 163.661 142.748 163.14 143.268C162.62 143.789 162.224 144.427 161.952 145.182C161.688 145.93 161.556 146.781 161.556 147.734C161.556 148.908 161.718 149.945 162.04 150.847C162.363 151.742 162.814 152.501 163.393 153.124C163.98 153.74 164.662 154.21 165.439 154.532C166.224 154.848 167.075 155.005 167.991 155.005Z" fill="#CEAF72"/>
<path d="M179.473 155.126C180.038 155.126 180.536 154.991 180.969 154.719C181.409 154.441 181.754 154.012 182.003 153.432C182.252 152.853 182.377 152.116 182.377 151.221C182.377 150.261 182.252 149.454 182.003 148.801C181.761 148.149 181.416 147.657 180.969 147.327C180.529 146.99 180.008 146.821 179.407 146.821C178.85 146.821 178.351 146.961 177.911 147.239C177.478 147.518 177.137 147.947 176.888 148.526C176.639 149.098 176.514 149.832 176.514 150.726C176.514 151.68 176.635 152.486 176.877 153.146C177.126 153.799 177.471 154.294 177.911 154.631C178.358 154.961 178.879 155.126 179.473 155.126ZM179.418 155.951C178.487 155.951 177.662 155.746 176.943 155.335C176.232 154.917 175.674 154.342 175.271 153.608C174.868 152.875 174.666 152.032 174.666 151.078C174.666 150.096 174.875 149.223 175.293 148.46C175.711 147.698 176.283 147.096 177.009 146.656C177.735 146.216 178.556 145.996 179.473 145.996C180.412 145.996 181.237 146.205 181.948 146.623C182.659 147.034 183.217 147.606 183.62 148.339C184.023 149.065 184.225 149.909 184.225 150.869C184.225 151.852 184.012 152.728 183.587 153.498C183.169 154.261 182.597 154.862 181.871 155.302C181.145 155.735 180.327 155.951 179.418 155.951Z" fill="#CEAF72"/>
<path d="M190.336 145.996C191.054 145.996 191.674 146.154 192.195 146.469C192.723 146.785 193.141 147.247 193.449 147.855C193.764 148.464 193.958 149.205 194.032 150.077H187.256L187.278 149.351L192.965 149.098L192.206 149.56C192.154 149.018 192.048 148.541 191.887 148.13C191.725 147.72 191.505 147.404 191.227 147.184C190.948 146.957 190.592 146.843 190.16 146.843C189.639 146.843 189.181 146.986 188.785 147.272C188.396 147.558 188.092 147.98 187.872 148.537C187.659 149.087 187.553 149.758 187.553 150.55C187.553 151.394 187.71 152.12 188.026 152.728C188.348 153.337 188.796 153.803 189.368 154.125C189.947 154.448 190.622 154.609 191.392 154.609C191.678 154.609 191.96 154.573 192.239 154.499C192.517 154.426 192.789 154.312 193.053 154.158C193.324 154.004 193.584 153.817 193.834 153.597L194.098 153.883C193.731 154.353 193.353 154.741 192.965 155.049C192.576 155.357 192.165 155.585 191.733 155.731C191.3 155.878 190.834 155.951 190.336 155.951C189.478 155.951 188.711 155.746 188.037 155.335C187.369 154.917 186.841 154.345 186.453 153.619C186.071 152.886 185.881 152.05 185.881 151.111C185.881 150.173 186.057 149.318 186.409 148.548C186.768 147.771 187.281 147.151 187.949 146.689C188.616 146.227 189.412 145.996 190.336 145.996ZM187.19 144.522L189.379 140.892H191.139L193.328 144.522H192.635L190.094 142.245H190.424L187.883 144.522H187.19Z" fill="#CEAF72"/>
<path d="M198.451 154.818L200.156 155.335V155.731H195.151V155.335L196.823 154.818V142.256C196.727 142.146 196.599 142.033 196.438 141.915C196.284 141.798 196.097 141.681 195.877 141.563C195.657 141.446 195.404 141.329 195.118 141.211V140.991L198.352 140.067H198.561L198.451 141.838V154.818Z" fill="#CEAF72"/>
<path d="M207.17 155.335L208.864 154.818V149.472C208.864 149.076 208.779 148.732 208.611 148.438C208.442 148.145 208.189 147.921 207.852 147.767C207.522 147.606 207.118 147.525 206.642 147.525C206.062 147.525 205.523 147.632 205.025 147.844C204.526 148.05 204.174 148.299 203.969 148.592L203.562 148.251C203.965 147.833 204.343 147.481 204.695 147.195C205.054 146.902 205.399 146.671 205.729 146.502C206.066 146.326 206.407 146.198 206.752 146.117C207.096 146.037 207.463 145.996 207.852 145.996C208.754 145.996 209.421 146.282 209.854 146.854C210.286 147.419 210.503 148.321 210.503 149.56V154.818L212.186 155.335V155.731H207.17V155.335ZM205.795 155.731H200.79V155.335L202.462 154.818V142.256C202.366 142.146 202.238 142.033 202.077 141.915C201.923 141.798 201.736 141.681 201.516 141.563C201.296 141.446 201.043 141.329 200.757 141.211V140.991L203.991 140.067H204.2L204.09 142.212V154.818L205.795 155.335V155.731Z" fill="#CEAF72"/>
<path d="M217.994 155.126C218.559 155.126 219.058 154.991 219.49 154.719C219.93 154.441 220.275 154.012 220.524 153.432C220.774 152.853 220.898 152.116 220.898 151.221C220.898 150.261 220.774 149.454 220.524 148.801C220.282 148.149 219.938 147.657 219.49 147.327C219.05 146.99 218.53 146.821 217.928 146.821C217.371 146.821 216.872 146.961 216.432 147.239C216 147.518 215.659 147.947 215.409 148.526C215.16 149.098 215.035 149.832 215.035 150.726C215.035 151.68 215.156 152.486 215.398 153.146C215.648 153.799 215.992 154.294 216.432 154.631C216.88 154.961 217.4 155.126 217.994 155.126ZM217.939 155.951C217.008 155.951 216.183 155.746 215.464 155.335C214.753 154.917 214.196 154.342 213.792 153.608C213.389 152.875 213.187 152.032 213.187 151.078C213.187 150.096 213.396 149.223 213.814 148.46C214.232 147.698 214.804 147.096 215.53 146.656C216.256 146.216 217.078 145.996 217.994 145.996C218.933 145.996 219.758 146.205 220.469 146.623C221.181 147.034 221.738 147.606 222.141 148.339C222.545 149.065 222.746 149.909 222.746 150.869C222.746 151.852 222.534 152.728 222.108 153.498C221.69 154.261 221.118 154.862 220.392 155.302C219.666 155.735 218.849 155.951 217.939 155.951Z" fill="#CEAF72"/>
<path d="M139.527 116.708L141.585 120.08L144.958 122.138L141.585 124.197L139.527 127.569L137.469 124.197L134.096 122.138L137.469 120.08L139.527 116.708Z" fill="#CEAF72"/>
</svg>
