<svg width="1440" height="692" viewBox="0 0 1440 692" fill="none" xmlns="http://www.w3.org/2000/svg">
<path d="M-1044 355.375H-43.125C95.6366 355.375 208.125 467.863 208.125 606.625V1081" stroke="#134B8D" stroke-width="0.75"/>
<path d="M1460.62 355.375H459.75C320.988 355.375 208.5 467.863 208.5 606.625V1081" stroke="#134B8D" stroke-width="0.75"/>
<path d="M-1044 331.75H-43.125C95.6366 331.75 208.125 444.238 208.125 583V1057.38" stroke="#134B8D" stroke-width="0.75"/>
<path d="M1460.62 331.75H459.75C320.988 331.75 208.5 444.238 208.5 583V1057.38" stroke="#134B8D" stroke-width="0.75"/>
<path d="M-1044 308.125H-43.125C95.6366 308.125 208.125 420.613 208.125 559.375V1033.75" stroke="#134B8D" stroke-width="0.75"/>
<path d="M1460.62 308.125H459.75C320.988 308.125 208.5 420.613 208.5 559.375V1033.75" stroke="#134B8D" stroke-width="0.75"/>
<path d="M-1044 284.5H-43.125C95.6366 284.5 208.125 396.988 208.125 535.75V1010.12" stroke="#134B8D" stroke-width="0.75"/>
<path d="M1460.62 284.5H459.75C320.988 284.5 208.5 396.988 208.5 535.75V1010.12" stroke="#134B8D" stroke-width="0.75"/>
<path d="M-1044 260.875H-43.125C95.6366 260.875 208.125 373.363 208.125 512.125V986.5" stroke="#134B8D" stroke-width="0.75"/>
<path d="M1460.62 260.875H459.75C320.988 260.875 208.5 373.363 208.5 512.125V986.5" stroke="#134B8D" stroke-width="0.75"/>
<path d="M-1044 237.25H-43.125C95.6366 237.25 208.125 349.738 208.125 488.5V962.875" stroke="#134B8D" stroke-width="0.75"/>
<path d="M1460.62 237.25H459.75C320.988 237.25 208.5 349.738 208.5 488.5V962.875" stroke="#134B8D" stroke-width="0.75"/>
<path d="M-1044 213.625H-43.125C95.6366 213.625 208.125 326.113 208.125 464.875V939.25" stroke="#134B8D" stroke-width="0.75"/>
<path d="M1460.62 213.625H459.75C320.988 213.625 208.5 326.113 208.5 464.875V939.25" stroke="#134B8D" stroke-width="0.75"/>
<path d="M-1044 190H-43.125C95.6366 190 208.125 302.488 208.125 441.25V915.625" stroke="#134B8D" stroke-width="0.75"/>
<path d="M1460.62 190H459.75C320.988 190 208.5 302.488 208.5 441.25V915.625" stroke="#134B8D" stroke-width="0.75"/>
<path d="M-1044 166.375H-43.125C95.6366 166.375 208.125 278.863 208.125 417.625V892" stroke="#134B8D" stroke-width="0.75"/>
<path d="M1460.62 166.375H459.75C320.988 166.375 208.5 278.863 208.5 417.625V892" stroke="#134B8D" stroke-width="0.75"/>
<path d="M-1044 142.75H-43.125C95.6366 142.75 208.125 255.238 208.125 394V868.375" stroke="#134B8D" stroke-width="0.75"/>
<path d="M1460.62 142.75H459.75C320.988 142.75 208.5 255.238 208.5 394V868.375" stroke="#134B8D" stroke-width="0.75"/>
<path d="M-1044 119.125H-43.125C95.6366 119.125 208.125 231.613 208.125 370.375V844.75" stroke="#134B8D" stroke-width="0.75"/>
<path d="M1460.62 119.125H459.75C320.988 119.125 208.5 231.613 208.5 370.375V844.75" stroke="#134B8D" stroke-width="0.75"/>
<path d="M-1044 95.5H-43.125C95.6366 95.5 208.125 207.988 208.125 346.75V821.125" stroke="#134B8D" stroke-width="0.75"/>
<path d="M1460.62 95.5H459.75C320.988 95.5 208.5 207.988 208.5 346.75V821.125" stroke="#134B8D" stroke-width="0.75"/>
<path d="M-1044 71.875H-43.125C95.6366 71.875 208.125 184.363 208.125 323.125V797.5" stroke="#134B8D" stroke-width="0.75"/>
<path d="M1460.62 71.875H459.75C320.988 71.875 208.5 184.363 208.5 323.125V797.5" stroke="#134B8D" stroke-width="0.75"/>
<path d="M-1044 48.25H-43.125C95.6366 48.25 208.125 160.738 208.125 299.5V773.875" stroke="#134B8D" stroke-width="0.75"/>
<path d="M1460.62 48.25H459.75C320.988 48.25 208.5 160.738 208.5 299.5V773.875" stroke="#134B8D" stroke-width="0.75"/>
<path d="M-1044 24.625H-43.125C95.6366 24.625 208.125 137.113 208.125 275.875V750.25" stroke="#134B8D" stroke-width="0.75"/>
<path d="M1460.62 24.625H459.75C320.988 24.625 208.5 137.113 208.5 275.875V750.25" stroke="#134B8D" stroke-width="0.75"/>
<path d="M-1044 1H-43.125C95.6366 1 208.125 113.488 208.125 252.25V726.625" stroke="#134B8D" stroke-width="0.75"/>
<path d="M1460.62 1H459.75C320.988 1 208.5 113.488 208.5 252.25V726.625" stroke="#134B8D" stroke-width="0.75"/>
</svg>
